HIERARCHY
ROOT SpineBase
{
  OFFSET 0.000000 0.000000 0.000000
  CHANNELS 6 Xposition Yposition Zposition Zrotation Xrotation Yrotation
  JOINT SpineMid
  {
    OFFSET 0.000000 31.677784 0.000000
    CHANNELS 3 Zrotation Xrotation Yrotation
    JOINT SpineShoulder
    {
      OFFSET -0.001533 23.524490 -0.832919
      CHANNELS 3 Zrotation Xrotation Yrotation
      JOINT Neck
      {
        OFFSET 0.024109 7.785107 -0.629963
        CHANNELS 3 Zrotation Xrotation Yrotation
        JOINT Head
        {
          OFFSET -5.094751 14.051688 -0.136300
          CHANNELS 3 Zrotation Xrotation Yrotation
          End Site
          {
            OFFSET 0 0 0
          }
        }
      }
      JOINT ShoulderLeft
      {
        OFFSET -16.328866 -6.181230 6.877737
        CHANNELS 3 Zrotation Xrotation Yrotation
        JOINT ElbowLeft
        {
          OFFSET -1.075301 -29.373135 5.547175
          CHANNELS 3 Zrotation Xrotation Yrotation
          JOINT WristLeft
          {
            OFFSET -0.273714 -25.332151 -4.920812
            CHANNELS 3 Zrotation Xrotation Yrotation
            JOINT HandLeft
            {
              OFFSET -0.466606 -4.059006 -0.409083
              CHANNELS 3 Zrotation Xrotation Yrotation
              JOINT HandTipLeft
              {
                OFFSET 0.066672 -5.184279 -0.821941
                CHANNELS 3 Zrotation Xrotation Yrotation
                End Site
                {
                  OFFSET 0 0 0
                }
              }
              JOINT ThumbLeft
              {
                OFFSET -1.946540 -0.878795 -1.139588
                CHANNELS 3 Zrotation Xrotation Yrotation
                End Site
                {
                  OFFSET 0 0 0
                }
              }
            }
          }
        }
      }
      JOINT ShoulderRight
      {
        OFFSET 14.324828 -3.545804 -9.225191
        CHANNELS 3 Zrotation Xrotation Yrotation
        JOINT ElbowRight
        {
          OFFSET 8.202310 -25.860895 -0.864775
          CHANNELS 3 Zrotation Xrotation Yrotation
          JOINT WristRight
          {
            OFFSET -0.119056 -23.815057 -5.545069
            CHANNELS 3 Zrotation Xrotation Yrotation
            JOINT HandRight
            {
              OFFSET -1.807259 -6.103541 -0.765011
              CHANNELS 3 Zrotation Xrotation Yrotation
              JOINT HandTipRight
              {
                OFFSET 0.442615 -6.946947 -0.920596
                CHANNELS 3 Zrotation Xrotation Yrotation
                End Site
                {
                  OFFSET 0 0 0
                }
              }
              JOINT ThumbRight
              {
                OFFSET -3.163215 -1.731893 -1.587939
                CHANNELS 3 Zrotation Xrotation Yrotation
                End Site
                {
                  OFFSET 0 0 0
                }
              }
            }
          }
        }
      }
    }
  }
  JOINT HipLeft
  {
    OFFSET -6.618811 0.228965 -0.904411
    CHANNELS 3 Zrotation Xrotation Yrotation
    JOINT KneeLeft
    {
      OFFSET 3.413480 -34.513410 2.664854
      CHANNELS 3 Zrotation Xrotation Yrotation
      JOINT AnkleLeft
      {
        OFFSET 8.202118 -37.319788 6.426722
        CHANNELS 3 Zrotation Xrotation Yrotation
        JOINT FootLeft
        {
          OFFSET 0.024882 -8.671370 -6.029839
          CHANNELS 3 Zrotation Xrotation Yrotation
          End Site
          {
            OFFSET 0 0 0
          }
        }
      }
    }
  }
  JOINT HipRight
  {
    OFFSET 7.108433 1.560120 -6.350518
    CHANNELS 3 Zrotation Xrotation Yrotation
    JOINT KneeRight
    {
      OFFSET 7.020988 -31.111880 -1.718004
      CHANNELS 3 Zrotation Xrotation Yrotation
      JOINT AnkleRight
      {
        OFFSET 3.670991 -41.076548 8.944126
        CHANNELS 3 Zrotation Xrotation Yrotation
        JOINT FootRight
        {
          OFFSET -3.239580 -9.073281 -1.226226
          CHANNELS 3 Zrotation Xrotation Yrotation
          End Site
          {
            OFFSET 0 0 0
          }
        }
      }
    }
  }
}
MOTION
Frames: 16
Frame Time: 0.033333
-23.267182 80.757967 340.643480 -0.000000 0.000000 21.640065 0.000000 0.000000 -21.640065 -0.000000 0.000000 0.000000 -0.000000 0.000000 0.000000 0.000000 0.000000 0.000000 -0.000000 0.000000 0.000000 -0.000000 0.000000 0.000000 -0.000000 0.000000 0.000000 -0.000000 0.000000 0.000000 0.000000 0.000000 0.000000 0.000000 0.000000 0.000000 -0.000000 0.000000 0.000000 -0.000000 0.000000 0.000000 -0.000000 0.000000 0.000000 -0.000000 0.000000 0.000000 0.000000 0.000000 0.000000 0.000000 0.000000 0.000000 0.000000 0.000000 -21.640065 -0.000000 0.000000 0.000000 -0.000000 0.000000 0.000000 0.000000 0.000000 0.000000 0.000000 0.000000 -21.640065 -0.000000 0.000000 0.000000 -0.000000 0.000000 0.000000 0.000000 0.000000 0.000000
-23.281910 80.764888 340.570728 0.044259 -0.000463 21.792609 -0.040924 0.016861 -21.792603 -0.000000 0.000000 0.000000 -0.000000 0.000000 0.000000 0.000000 0.000000 0.000000 -0.000000 0.000000 0.000000 -0.000000 0.000000 0.000000 -0.000326 3.062600 -0.351158 1.098439 -3.553452 0.237136 0.000000 0.000000 0.000000 0.000000 0.000000 0.000000 -0.000000 0.000000 0.000000 -0.000000 0.000000 0.000000 -0.000000 0.000000 0.000000 -0.445177 -1.770434 -0.060834 0.000000 0.000000 0.000000 0.000000 0.000000 0.000000 -0.040924 0.016861 -21.792603 -0.000000 0.000000 0.000000 1.598607 1.415021 -1.117704 0.000000 0.000000 0.000000 -0.040924 0.016861 -21.792603 -0.000000 0.000000 0.000000 -2.011692 11.844153 -3.687333 0.000000 0.000000 0.000000
-23.296717 80.769778 340.511282 0.082499 -0.011160 21.924847 -0.072365 0.041158 -21.924813 -0.000000 0.000000 0.000000 -0.000000 0.000000 0.000000 0.000000 0.000000 0.000000 -0.000000 0.000000 0.000000 -0.000000 0.000000 0.000000 0.031249 5.303226 -0.611826 1.803803 -5.965086 0.497846 0.000000 0.000000 0.000000 0.000000 0.000000 0.000000 -0.000000 0.000000 0.000000 -0.000000 0.000000 0.000000 0.908093 -0.074684 -0.091338 -1.729528 -3.077510 -0.020685 0.000000 0.000000 0.000000 0.000000 0.000000 0.000000 -0.072365 0.041158 -21.924813 -0.000000 0.000000 0.000000 2.869938 2.582418 -2.021346 0.000000 0.000000 0.000000 -0.072365 0.041158 -21.924813 -0.000000 0.000000 0.000000 -3.271387 22.000830 -6.625667 0.000000 0.000000 0.000000
-23.311603 80.772639 340.465141 0.114716 -0.032095 22.036853 -0.094293 0.072792 -22.036761 -0.000000 0.000000 0.000000 -0.000000 0.000000 0.000000 0.000000 0.000000 0.000000 -0.000000 0.000000 0.000000 -0.000000 0.000000 0.000000 0.083430 6.834024 -0.795201 2.209187 -7.425395 0.711207 0.000000 0.000000 0.000000 0.000000 0.000000 0.000000 -0.000000 0.000000 0.000000 -0.000000 0.000000 0.000000 1.282978 -0.212368 -0.095894 -2.421654 -3.942800 -0.050043 0.000000 0.000000 0.000000 0.000000 0.000000 0.000000 -0.094293 0.072792 -22.036761 -0.000000 0.000000 0.000000 3.809753 3.523810 -2.698802 0.000000 0.000000 0.000000 -0.094293 0.072792 -22.036761 -0.000000 0.000000 0.000000 -4.028657 29.960743 -8.873865 0.000000 0.000000 0.000000
-23.326569 80.773470 340.432305 0.140907 -0.063267 22.128685 -0.106696 0.111684 -22.128503 -0.000000 0.000000 0.000000 -0.000000 0.000000 0.000000 0.000000 0.000000 0.000000 -0.000000 0.000000 0.000000 0.472536 -0.883612 -0.078721 -0.335329 8.621284 -0.825398 2.364502 -8.056935 0.847360 0.000000 0.000000 0.000000 0.000000 0.000000 0.000000 0.404504 -0.780290 -0.258030 -0.408052 0.778440 0.263556 1.611902 -0.414138 -0.073936 -3.009729 -4.376361 -0.082833 0.000000 0.000000 0.000000 0.000000 0.000000 0.000000 -0.106696 0.111684 -22.128503 -0.000000 0.000000 0.000000 4.416240 4.257405 -3.142098 0.000000 0.000000 0.000000 -0.106696 0.111684 -22.128503 -0.000000 0.000000 0.000000 -4.525731 35.826125 -10.510931 0.000000 0.000000 0.000000
-23.341614 80.772271 340.412774 0.161068 -0.104674 22.200386 -0.109578 0.157773 -22.200088 -0.000000 0.000000 0.000000 -0.000000 0.000000 0.000000 0.000000 0.000000 0.000000 -0.000000 0.000000 0.000000 0.591597 -1.042404 -0.098454 -0.380868 9.113548 -0.855361 2.297386 -7.930601 0.897656 0.000000 0.000000 0.000000 0.000000 0.000000 0.000000 0.464406 -0.891471 -0.294368 -0.469036 0.889043 0.301620 1.898912 -0.679283 -0.025779 -3.499258 -4.385301 -0.114665 0.000000 0.000000 0.000000 0.000000 0.000000 0.000000 -0.109578 0.157773 -22.200088 -0.000000 0.000000 0.000000 4.688193 4.796442 -3.345740 0.000000 0.000000 0.000000 -0.109578 0.157773 -22.200088 -0.000000 0.000000 0.000000 -4.946187 39.918806 -11.601823 0.000000 0.000000 0.000000
-23.346933 80.769723 340.403780 0.187493 -0.157148 22.249561 -0.114031 0.216440 -22.249088 -0.000000 0.000000 0.000000 -0.000000 0.000000 0.000000 0.000000 0.000000 0.000000 -0.000000 0.000000 0.000000 0.832919 -1.079412 -0.142561 -0.623930 9.028634 -0.792968 1.787763 -8.438196 0.892838 0.000000 0.000000 0.000000 0.000000 0.000000 0.000000 0.529584 -1.001964 -0.330491 -0.535435 0.998849 0.339789 1.951308 -0.669799 -0.035064 -3.113087 -4.082553 -0.126099 0.000000 0.000000 0.000000 0.000000 0.000000 0.000000 -0.114031 0.216440 -22.249088 -0.000000 0.000000 0.000000 5.621052 5.501752 -4.029454 0.000000 0.000000 0.000000 -0.114031 0.216440 -22.249088 -0.000000 0.000000 0.000000 -5.740316 42.190670 -11.910711 0.000000 0.000000 0.000000
-23.370118 80.763082 340.423318 0.180569 -0.236336 22.250788 -0.077633 0.287111 -22.250221 -0.000000 0.000000 0.000000 -0.000000 0.000000 0.000000 0.000000 0.000000 0.000000 -0.000000 0.000000 0.000000 0.980162 -1.037915 -0.170625 -0.204152 8.548992 -0.816649 0.639512 -8.214743 0.861233 0.000000 0.000000 0.000000 0.000000 0.000000 0.000000 0.605180 -1.079013 -0.356294 -0.611986 1.075168 0.367735 1.870748 -1.127448 0.118477 -4.031955 -2.156719 -0.024246 0.000000 0.000000 0.000000 0.000000 0.000000 0.000000 -0.077633 0.287111 -22.250221 -0.000000 0.000000 0.000000 5.384854 5.350040 -3.856342 0.000000 0.000000 0.000000 -0.077633 0.287111 -22.250221 -0.000000 0.000000 0.000000 -6.698015 44.605482 -12.149172 0.000000 0.000000 0.000000
-23.410913 80.751598 340.473918 0.156172 -0.344316 22.259397 -0.014108 0.377814 -22.258881 -0.000000 0.000000 0.000000 -0.000000 0.000000 0.000000 0.000000 0.000000 0.000000 -0.000000 0.000000 0.000000 1.005332 -0.991504 -0.176193 0.757215 7.547738 -0.867982 -0.805996 -4.284189 0.802665 0.000000 0.000000 0.000000 0.000000 0.000000 0.000000 0.626564 -1.108994 -0.366122 -0.633755 1.104901 0.378296 1.812625 -2.074356 0.422830 -4.304615 -0.913119 -0.193166 0.000000 0.000000 0.000000 0.000000 0.000000 0.000000 -0.014108 0.377814 -22.258881 -0.000000 0.000000 0.000000 4.858289 4.690459 -3.465763 0.000000 0.000000 0.000000 -0.014108 0.377814 -22.258881 -0.000000 0.000000 0.000000 -8.425644 49.203005 -12.564832 0.000000 0.000000 0.000000
-23.432239 80.747929 340.501723 0.150481 -0.409120 22.322434 0.016186 0.435616 -22.321958 -0.000000 0.000000 0.000000 0.312142 -0.724638 -0.257465 0.000000 0.000000 0.000000 0.368030 -0.755551 0.099478 0.557532 -0.507021 -0.263346 1.083378 4.935855 -0.557083 -1.630086 1.475083 0.570677 0.000000 0.000000 0.000000 0.000000 0.000000 0.000000 0.565530 -1.066903 -0.351603 -0.572165 1.063360 0.362179 2.476352 -3.004334 0.650600 -5.029661 1.105632 -0.210655 0.000000 0.000000 0.000000 0.000000 0.000000 0.000000 0.016186 0.435616 -22.321958 -0.000000 0.000000 0.000000 3.261315 4.812173 -2.323300 0.000000 0.000000 0.000000 0.016186 0.435616 -22.321958 -0.000000 0.000000 0.000000 -8.110259 49.480059 -12.829562 0.000000 0.000000 0.000000
-23.414400 80.740989 340.499457 0.193036 -0.429200 22.339942 -0.015411 0.470358 -22.339155 -0.000000 0.000000 0.000000 0.261806 -0.826320 -0.294913 0.000000 0.000000 0.000000 0.409355 -0.816203 0.109970 0.342962 -1.007089 -0.230110 0.432759 2.045423 -0.046624 0.267472 8.625843 -0.081678 0.000000 0.000000 0.000000 0.000000 0.000000 0.000000 0.452113 -0.899902 -0.296702 -0.456822 0.897521 0.303831 3.244537 -3.989387 0.899442 -4.816879 1.146647 -0.574246 0.000000 0.000000 0.000000 0.000000 0.000000 0.000000 -0.015411 0.470358 -22.339155 -0.000000 0.000000 0.000000 1.231271 4.091594 -0.866888 0.000000 0.000000 0.000000 -0.015411 0.470358 -22.339155 -0.000000 0.000000 0.000000 -6.888814 40.646327 -10.855348 0.000000 0.000000 0.000000
-23.355452 80.735951 340.447409 0.275409 -0.403439 22.358338 -0.101243 0.477872 -22.356946 -0.000000 0.000000 0.000000 0.199100 -0.861709 -0.308791 0.000000 0.000000 0.000000 0.444081 -0.912423 0.120641 0.175533 -2.030807 -0.197339 -0.253443 0.327652 0.359228 2.336529 11.010554 -0.880281 0.000000 0.000000 0.000000 0.000000 0.000000 0.000000 0.245326 -0.784354 -0.255187 0.418365 -0.326550 0.106932 4.180648 -2.925730 0.836797 -5.564604 1.864575 -0.436303 0.000000 0.000000 0.000000 0.000000 0.000000 0.000000 -0.101243 0.477872 -22.356946 -0.000000 0.000000 0.000000 -1.639215 2.938171 1.169568 0.000000 0.000000 0.000000 -0.101243 0.477872 -22.356946 -0.000000 0.000000 0.000000 -7.322976 42.380128 -11.150704 0.000000 0.000000 0.000000
-23.260401 80.732722 340.349542 0.390065 -0.331286 22.387346 -0.234499 0.454875 -22.385288 -0.000000 0.000000 0.000000 0.150347 -0.899904 -0.323469 0.000000 0.000000 0.000000 0.431920 -0.877896 0.116864 -0.392608 -3.325231 -0.072615 -3.318781 1.529385 0.765389 6.244132 9.345408 -1.377484 0.000000 0.000000 0.000000 0.000000 0.000000 0.000000 -0.000000 0.000000 0.000000 1.089577 -1.456743 -0.233269 5.272145 -3.014426 0.896370 -5.298236 1.573540 -0.678628 0.000000 0.000000 0.000000 0.000000 0.000000 0.000000 -0.234499 0.454875 -22.385288 -0.000000 0.000000 0.000000 -5.096810 2.767024 3.616153 0.000000 0.000000 0.000000 -0.234499 0.454875 -22.385288 -0.000000 0.000000 0.000000 -7.655526 43.587179 -11.334346 0.000000 0.000000 0.000000
-23.143253 80.734973 340.219630 0.523584 -0.222299 22.383641 -0.399492 0.404925 -22.381213 -0.000000 0.000000 0.000000 0.029229 -0.799202 -0.289239 0.000000 0.000000 0.000000 -0.000000 0.000000 0.000000 -0.879509 -4.701947 0.187049 -7.646148 1.824533 1.412157 10.397188 9.969223 -1.744434 0.000000 0.000000 0.000000 0.000000 0.000000 0.000000 -0.000000 0.000000 0.000000 1.540238 -1.645329 -0.329427 6.669490 -1.416811 0.244880 -6.513811 -1.372503 -0.199914 0.000000 0.000000 0.000000 0.000000 0.000000 0.000000 -0.399492 0.404925 -22.381213 -0.000000 0.000000 0.000000 -5.422678 2.765017 3.846999 0.000000 0.000000 0.000000 -0.399492 0.404925 -22.381213 -0.000000 0.000000 0.000000 -7.470642 41.676171 -10.867009 0.000000 0.000000 0.000000
-23.030523 80.753112 340.054505 0.638365 -0.071340 22.413856 -0.562945 0.309348 -22.411939 -0.000000 0.000000 0.000000 -0.000000 0.000000 0.000000 0.000000 0.000000 0.000000 -0.000000 0.000000 0.000000 -2.419437 -5.026635 0.421680 -11.898720 4.208952 2.046610 13.346197 4.677388 -1.303513 0.000000 0.000000 0.000000 0.000000 0.000000 0.000000 -0.718488 0.986701 0.343757 2.518842 -2.503699 -0.692398 7.645868 -0.931791 -0.069253 -7.794984 -2.664550 0.123351 0.000000 0.000000 0.000000 0.000000 0.000000 0.000000 -1.238786 -0.167156 -22.514360 0.441891 0.698968 0.100564 -5.520149 4.707497 3.967639 0.000000 0.000000 0.000000 -1.283420 -0.358224 -22.591006 0.408788 0.893105 0.175574 -6.361745 36.047868 -9.733875 0.000000 0.000000 0.000000
-22.953480 80.771609 339.880418 0.711190 0.082418 22.450234 -0.688765 0.195418 -22.449571 -0.000000 0.000000 0.000000 -0.000000 0.000000 0.000000 0.000000 0.000000 0.000000 -0.000000 0.000000 0.000000 -4.418835 -2.992321 0.779276 -17.048504 4.811105 2.399059 14.839878 1.051232 -0.462474 0.000000 0.000000 0.000000 0.000000 0.000000 0.000000 -0.871125 2.252537 0.762112 2.076165 -2.367164 -0.965577 8.594233 0.225367 -1.034781 -8.615982 -6.968144 0.776059 0.000000 0.000000 0.000000 0.000000 0.000000 0.000000 -1.542464 -0.479602 -22.586629 0.529032 0.951101 0.130550 -3.999725 6.620244 2.915266 0.000000 0.000000 0.000000 -1.499148 -0.632322 -22.671540 0.428799 1.076106 0.214853 -5.556677 29.197688 -8.021401 0.000000 0.000000 0.000000
